<mxfile host="app.diagrams.net" agent="Mozilla/5.0 (Windows NT 10.0; Win64; x64) AppleWebKit/537.36 (KHTML, like Gecko) Chrome/129.0.0.0 Safari/537.36 Edg/129.0.0.0" version="24.7.17">
  <diagram name="Page-1" id="0fco2W5xarE3FVHo4ML2">
    <mxGraphModel dx="1306" dy="1093" grid="1" gridSize="10" guides="1" tooltips="1" connect="1" arrows="1" fold="1" page="1" pageScale="1" pageWidth="850" pageHeight="1100" math="0" shadow="0">
      <root>
        <mxCell id="0" />
        <mxCell id="1" parent="0" />
        <mxCell id="YaUMQpLk6-qL4jj2wBm1-1" style="edgeStyle=orthogonalEdgeStyle;rounded=0;orthogonalLoop=1;jettySize=auto;html=1;entryX=0.5;entryY=0;entryDx=0;entryDy=0;endArrow=ERmany;endFill=0;startArrow=ERone;startFill=0;" parent="1" source="YaUMQpLk6-qL4jj2wBm1-3" target="YaUMQpLk6-qL4jj2wBm1-6" edge="1">
          <mxGeometry relative="1" as="geometry" />
        </mxCell>
        <mxCell id="YaUMQpLk6-qL4jj2wBm1-2" style="edgeStyle=orthogonalEdgeStyle;rounded=0;orthogonalLoop=1;jettySize=auto;html=1;exitX=1;exitY=0.25;exitDx=0;exitDy=0;entryX=0;entryY=0.25;entryDx=0;entryDy=0;startArrow=ERmany;startFill=0;endArrow=ERone;endFill=0;" parent="1" source="YaUMQpLk6-qL4jj2wBm1-3" target="YaUMQpLk6-qL4jj2wBm1-17" edge="1">
          <mxGeometry relative="1" as="geometry">
            <Array as="points">
              <mxPoint x="1500" y="135" />
              <mxPoint x="1500" y="275" />
            </Array>
          </mxGeometry>
        </mxCell>
        <mxCell id="YaUMQpLk6-qL4jj2wBm1-3" value="Noliktavas" style="rounded=0;whiteSpace=wrap;html=1;" parent="1" vertex="1">
          <mxGeometry x="1140" y="120" width="120" height="60" as="geometry" />
        </mxCell>
        <mxCell id="YaUMQpLk6-qL4jj2wBm1-5" style="edgeStyle=orthogonalEdgeStyle;rounded=0;orthogonalLoop=1;jettySize=auto;html=1;exitX=1;exitY=0.5;exitDx=0;exitDy=0;entryX=0;entryY=0.5;entryDx=0;entryDy=0;endArrow=ERone;endFill=0;startArrow=ERmany;startFill=0;" parent="1" source="YaUMQpLk6-qL4jj2wBm1-6" target="YaUMQpLk6-qL4jj2wBm1-17" edge="1">
          <mxGeometry relative="1" as="geometry" />
        </mxCell>
        <mxCell id="YaUMQpLk6-qL4jj2wBm1-23" value="" style="edgeStyle=orthogonalEdgeStyle;rounded=0;orthogonalLoop=1;jettySize=auto;html=1;startArrow=ERmany;startFill=0;endArrow=ERone;endFill=0;" parent="1" source="YaUMQpLk6-qL4jj2wBm1-6" target="YaUMQpLk6-qL4jj2wBm1-21" edge="1">
          <mxGeometry relative="1" as="geometry" />
        </mxCell>
        <mxCell id="YaUMQpLk6-qL4jj2wBm1-6" value="Sūtījumi" style="rounded=0;whiteSpace=wrap;html=1;" parent="1" vertex="1">
          <mxGeometry x="1360" y="260" width="120" height="60" as="geometry" />
        </mxCell>
        <mxCell id="YaUMQpLk6-qL4jj2wBm1-7" style="edgeStyle=orthogonalEdgeStyle;rounded=0;orthogonalLoop=1;jettySize=auto;html=1;exitX=0.473;exitY=0.993;exitDx=0;exitDy=0;entryX=0;entryY=0.5;entryDx=0;entryDy=0;exitPerimeter=0;startArrow=ERone;startFill=0;endArrow=ERmany;endFill=0;" parent="1" source="YaUMQpLk6-qL4jj2wBm1-8" target="YaUMQpLk6-qL4jj2wBm1-9" edge="1">
          <mxGeometry relative="1" as="geometry">
            <Array as="points">
              <mxPoint x="987" y="440" />
            </Array>
            <mxPoint x="968.4000000000001" y="330" as="sourcePoint" />
            <mxPoint x="1420" y="330.42" as="targetPoint" />
          </mxGeometry>
        </mxCell>
        <mxCell id="YaUMQpLk6-qL4jj2wBm1-8" value="Kurjeri" style="rounded=0;whiteSpace=wrap;html=1;" parent="1" vertex="1">
          <mxGeometry x="930" y="260" width="120" height="60" as="geometry" />
        </mxCell>
        <mxCell id="YaUMQpLk6-qL4jj2wBm1-22" value="" style="edgeStyle=orthogonalEdgeStyle;rounded=0;orthogonalLoop=1;jettySize=auto;html=1;endArrow=ERmany;endFill=0;startArrow=ERone;startFill=0;" parent="1" source="YaUMQpLk6-qL4jj2wBm1-9" target="YaUMQpLk6-qL4jj2wBm1-21" edge="1">
          <mxGeometry relative="1" as="geometry" />
        </mxCell>
        <mxCell id="YaUMQpLk6-qL4jj2wBm1-9" value="Maršruti" style="rounded=0;whiteSpace=wrap;html=1;" parent="1" vertex="1">
          <mxGeometry x="1140" y="410" width="120" height="60" as="geometry" />
        </mxCell>
        <mxCell id="YaUMQpLk6-qL4jj2wBm1-10" style="edgeStyle=orthogonalEdgeStyle;rounded=0;orthogonalLoop=1;jettySize=auto;html=1;entryX=0;entryY=0.5;entryDx=0;entryDy=0;endArrow=ERmany;endFill=0;startArrow=ERone;startFill=0;exitX=1;exitY=0.5;exitDx=0;exitDy=0;" parent="1" source="YaUMQpLk6-qL4jj2wBm1-11" target="YaUMQpLk6-qL4jj2wBm1-6" edge="1">
          <mxGeometry relative="1" as="geometry">
            <mxPoint x="1240" y="330" as="sourcePoint" />
            <mxPoint x="1340" y="330" as="targetPoint" />
            <Array as="points">
              <mxPoint x="1310" y="290" />
              <mxPoint x="1310" y="290" />
            </Array>
          </mxGeometry>
        </mxCell>
        <mxCell id="YaUMQpLk6-qL4jj2wBm1-11" value="Administrators" style="rounded=0;whiteSpace=wrap;html=1;" parent="1" vertex="1">
          <mxGeometry x="1140" y="260" width="120" height="60" as="geometry" />
        </mxCell>
        <mxCell id="YaUMQpLk6-qL4jj2wBm1-12" style="edgeStyle=orthogonalEdgeStyle;rounded=0;orthogonalLoop=1;jettySize=auto;html=1;entryX=0.5;entryY=0;entryDx=0;entryDy=0;endArrow=ERmany;endFill=0;startArrow=ERone;startFill=0;" parent="1" source="YaUMQpLk6-qL4jj2wBm1-11" target="YaUMQpLk6-qL4jj2wBm1-9" edge="1">
          <mxGeometry relative="1" as="geometry">
            <Array as="points">
              <mxPoint x="1200" y="370" />
              <mxPoint x="1200" y="370" />
            </Array>
          </mxGeometry>
        </mxCell>
        <mxCell id="YaUMQpLk6-qL4jj2wBm1-13" style="edgeStyle=orthogonalEdgeStyle;rounded=0;orthogonalLoop=1;jettySize=auto;html=1;entryX=0;entryY=0.5;entryDx=0;entryDy=0;endArrow=ERone;endFill=0;startArrow=ERmany;startFill=0;" parent="1" source="YaUMQpLk6-qL4jj2wBm1-8" target="YaUMQpLk6-qL4jj2wBm1-11" edge="1">
          <mxGeometry relative="1" as="geometry" />
        </mxCell>
        <mxCell id="YaUMQpLk6-qL4jj2wBm1-14" style="edgeStyle=orthogonalEdgeStyle;rounded=0;orthogonalLoop=1;jettySize=auto;html=1;endArrow=ERmany;endFill=0;startArrow=ERone;startFill=0;entryX=0.5;entryY=1;entryDx=0;entryDy=0;" parent="1" source="YaUMQpLk6-qL4jj2wBm1-11" target="YaUMQpLk6-qL4jj2wBm1-3" edge="1">
          <mxGeometry relative="1" as="geometry">
            <mxPoint x="1200" y="140" as="targetPoint" />
            <Array as="points">
              <mxPoint x="1200" y="210" />
              <mxPoint x="1200" y="210" />
            </Array>
          </mxGeometry>
        </mxCell>
        <mxCell id="YaUMQpLk6-qL4jj2wBm1-17" value="Adreses" style="rounded=0;whiteSpace=wrap;html=1;" parent="1" vertex="1">
          <mxGeometry x="1520" y="260" width="120" height="60" as="geometry" />
        </mxCell>
        <mxCell id="YaUMQpLk6-qL4jj2wBm1-21" value="Ceļu posmi" style="whiteSpace=wrap;html=1;rounded=0;" parent="1" vertex="1">
          <mxGeometry x="1360" y="410" width="120" height="60" as="geometry" />
        </mxCell>
        <mxCell id="BO1Knz_FsJ8SzeF2ihYr-1" value="&lt;li&gt;&lt;strong&gt;Noliktavas&lt;/strong&gt; – Savienotas ar administratoriem un sūtījumiem, tās nodrošina informāciju par pieejamiem produktiem.&lt;/li&gt;&lt;li&gt;&lt;strong&gt;Administrators&lt;/strong&gt; – Centrālais elements, kas pārvalda informāciju no noliktavām, sūtījumiem, kurjeriem un maršrutiem.&lt;/li&gt;&lt;li&gt;&lt;strong&gt;Kurjeri&lt;/strong&gt; – Saņem un piegādā sūtījumus, sadarbojas ar maršrutu plānošanu un administratoriem.&lt;/li&gt;&lt;li&gt;&lt;strong&gt;Maršruti&lt;/strong&gt; – Izstrādā optimālus piegādes ceļus, pamatojoties uz kurjeru un sūtījumu datiem.&lt;/li&gt;&lt;li&gt;&lt;strong&gt;Sūtījumi&lt;/strong&gt; – Savienoti ar noliktavām, adresēm un maršrutiem, tie atspoguļo piegādes pakalpojumus.&lt;/li&gt;&lt;li&gt;&lt;strong&gt;Adreses&lt;/strong&gt; – Norāda galamērķus sūtījumiem.&lt;/li&gt;&lt;li&gt;&lt;b&gt;Ceļu posmi&lt;/b&gt; – ietver sevī Maršruta Id, iepriekšeja sūtijuma vaikurjera sākuma punktu, gāla punktu posmam - nākama sūtijuma ID (adresi) un JSON formātā Starppunktus, kas ir lauzašanas punkti, lai kartē attēlotos korrekti maršruts.&lt;/li&gt;" style="text;whiteSpace=wrap;html=1;" parent="1" vertex="1">
          <mxGeometry x="1010" y="520" width="560" height="170" as="geometry" />
        </mxCell>
      </root>
    </mxGraphModel>
  </diagram>
</mxfile>
